<svg width="1600" height="900" viewBox="0 0 1600 900" fill="none" xmlns="http://www.w3.org/2000/svg">
  <rect width="1600" height="900" fill="#07080C"/>
  <rect x="36" y="48" width="300" height="804" rx="30" fill="#11131A" stroke="#2C2F38" stroke-width="2"/>
  <rect x="60" y="312" width="252" height="66" rx="24" fill="#171922" stroke="#FF6D57" stroke-width="2"/>
  <text x="104" y="353" fill="#FF7A67" font-family="Arial, Helvetica, sans-serif" font-size="20" font-weight="700">Workflows</text>

  <rect x="372" y="48" width="1192" height="74" rx="28" fill="#11131A" stroke="#2C2F38" stroke-width="2"/>
  <rect x="390" y="156" width="196" height="42" rx="21" fill="#171922" stroke="#2C2F38" stroke-width="2"/>
  <text x="418" y="184" fill="#B8BDC8" font-family="Arial, Helvetica, sans-serif" font-size="18" letter-spacing="3">Approval rules</text>
  <text x="390" y="262" fill="#F4F5F6" font-family="Arial, Helvetica, sans-serif" font-size="36" font-weight="700">Admin approval rules management</text>
  <text x="390" y="310" fill="#9AA0AE" font-family="Arial, Helvetica, sans-serif" font-size="24">Assign managers, define approvers, configure sequence logic, and save routing decisions in one screen.</text>

  <rect x="390" y="362" width="620" height="468" rx="28" fill="#13161D" stroke="#2D323D" stroke-width="2"/>
  <text x="420" y="416" fill="#D7DBE3" font-family="Arial, Helvetica, sans-serif" font-size="18">User table</text>
  <text x="420" y="468" fill="#F4F5F6" font-family="Arial, Helvetica, sans-serif" font-size="26" font-weight="700">Assign managers and open rule editing inline</text>
  <line x1="390" y1="530" x2="1010" y2="530" stroke="#5F636C" stroke-width="2"/>
  <text x="420" y="578" fill="#B8BDC8" font-family="Arial, Helvetica, sans-serif" font-size="16" letter-spacing="2">USER NAME</text>
  <text x="680" y="578" fill="#B8BDC8" font-family="Arial, Helvetica, sans-serif" font-size="16" letter-spacing="2">ROLE</text>
  <text x="834" y="578" fill="#B8BDC8" font-family="Arial, Helvetica, sans-serif" font-size="16" letter-spacing="2">MANAGER</text>
  <line x1="390" y1="610" x2="1010" y2="610" stroke="#5F636C" stroke-width="2"/>
  <text x="420" y="664" fill="#F4F5F6" font-family="Arial, Helvetica, sans-serif" font-size="22" font-weight="700">Ajay</text>
  <rect x="680" y="628" width="150" height="56" rx="24" fill="#171922" stroke="#FF6D57" stroke-width="2"/>
  <text x="720" y="664" fill="#F4F5F6" font-family="Arial, Helvetica, sans-serif" font-size="18">Employee</text>
  <rect x="846" y="628" width="140" height="56" rx="24" fill="#171922" stroke="#FF6D57" stroke-width="2"/>
  <text x="874" y="664" fill="#F4F5F6" font-family="Arial, Helvetica, sans-serif" font-size="18">Unassigned</text>

  <rect x="1042" y="362" width="522" height="468" rx="28" fill="#13161D" stroke="#2D323D" stroke-width="2"/>
  <text x="1072" y="416" fill="#D7DBE3" font-family="Arial, Helvetica, sans-serif" font-size="18">Approval Rule for Miscellaneous Expenses</text>
  <text x="1072" y="476" fill="#F4F5F6" font-family="Arial, Helvetica, sans-serif" font-size="32" font-weight="700">Ajay</text>
  <rect x="1072" y="534" width="200" height="64" rx="22" fill="#171922" stroke="#D5D9E1" stroke-width="2"/>
  <rect x="1300" y="534" width="224" height="64" rx="22" fill="#171922" stroke="#D5D9E1" stroke-width="2"/>
  <rect x="1072" y="646" width="452" height="140" rx="24" fill="#1D2027" stroke="#3D424D" stroke-width="2"/>
  <text x="1104" y="700" fill="#F4F5F6" font-family="Arial, Helvetica, sans-serif" font-size="22" font-weight="700">Approvers</text>
  <text x="1104" y="742" fill="#B8BDC8" font-family="Arial, Helvetica, sans-serif" font-size="18">Order, required logic, sequential flow, and override approvers.</text>
</svg>
