<svg width="1600" height="900" viewBox="0 0 1600 900" fill="none" xmlns="http://www.w3.org/2000/svg">
  <rect width="1600" height="900" fill="#07080C"/>
  <rect x="36" y="48" width="300" height="804" rx="30" fill="#11131A" stroke="#2C2F38" stroke-width="2"/>
  <text x="92" y="118" fill="#A7ACB7" font-family="Arial, Helvetica, sans-serif" font-size="18">Approval orchestration</text>
  <text x="92" y="156" fill="#F4F5F6" font-family="Arial, Helvetica, sans-serif" font-size="30" font-weight="700">ClaimFlow AI</text>
  <rect x="60" y="216" width="252" height="66" rx="24" fill="#171922" stroke="#FF6D57" stroke-width="2"/>
  <text x="108" y="257" fill="#FF7A67" font-family="Arial, Helvetica, sans-serif" font-size="20" font-weight="700">Admin HQ</text>
  <text x="106" y="330" fill="#CEC2B1" font-family="Arial, Helvetica, sans-serif" font-size="18">People</text>
  <text x="106" y="388" fill="#CEC2B1" font-family="Arial, Helvetica, sans-serif" font-size="18">Workflows</text>
  <text x="106" y="446" fill="#CEC2B1" font-family="Arial, Helvetica, sans-serif" font-size="18">Policy Engine</text>
  <text x="106" y="504" fill="#CEC2B1" font-family="Arial, Helvetica, sans-serif" font-size="18">Payouts</text>

  <rect x="372" y="48" width="1192" height="74" rx="28" fill="#11131A" stroke="#2C2F38" stroke-width="2"/>
  <rect x="398" y="68" width="840" height="38" rx="19" fill="#090C12" stroke="#D5D9E1" stroke-width="2"/>
  <rect x="1292" y="67" width="118" height="40" rx="20" fill="#171922" stroke="#FF6D57" stroke-width="2"/>
  <text x="1322" y="94" fill="#FF7A67" font-family="Arial, Helvetica, sans-serif" font-size="20" font-weight="700">Live system</text>
  <rect x="1424" y="67" width="118" height="40" rx="20" fill="#11131A" stroke="#D5D9E1" stroke-width="2"/>
  <text x="1452" y="94" fill="#F4F5F6" font-family="Arial, Helvetica, sans-serif" font-size="20">Ariana Blake</text>

  <rect x="392" y="156" width="172" height="42" rx="21" fill="#171922" stroke="#2C2F38" stroke-width="2"/>
  <text x="423" y="184" fill="#B8BDC8" font-family="Arial, Helvetica, sans-serif" font-size="18" letter-spacing="3">Admin experience</text>
  <text x="390" y="262" fill="#F4F5F6" font-family="Arial, Helvetica, sans-serif" font-size="36" font-weight="700">Company-wide reimbursement command</text>
  <text x="390" y="310" fill="#9AA0AE" font-family="Arial, Helvetica, sans-serif" font-size="24">Monitor spend, approval health, fraud alerts, payouts, and workforce coverage from one command center.</text>

  <g>
    <rect x="390" y="360" width="258" height="150" rx="28" fill="#13161D" stroke="#2D323D" stroke-width="2"/>
    <text x="420" y="405" fill="#D7DBE3" font-family="Arial, Helvetica, sans-serif" font-size="18">Total spend</text>
    <text x="420" y="468" fill="#F4F5F6" font-family="Arial, Helvetica, sans-serif" font-size="54" font-weight="700">$276</text>
  </g>
  <g>
    <rect x="670" y="360" width="258" height="150" rx="28" fill="#13161D" stroke="#2D323D" stroke-width="2"/>
    <text x="700" y="405" fill="#D7DBE3" font-family="Arial, Helvetica, sans-serif" font-size="18">Approval rate</text>
    <text x="700" y="468" fill="#F4F5F6" font-family="Arial, Helvetica, sans-serif" font-size="54" font-weight="700">0%</text>
  </g>
  <g>
    <rect x="950" y="360" width="258" height="150" rx="28" fill="#13161D" stroke="#2D323D" stroke-width="2"/>
    <text x="980" y="405" fill="#D7DBE3" font-family="Arial, Helvetica, sans-serif" font-size="18">Rejection rate</text>
    <text x="980" y="468" fill="#F4F5F6" font-family="Arial, Helvetica, sans-serif" font-size="54" font-weight="700">0%</text>
  </g>
  <g>
    <rect x="1230" y="360" width="258" height="150" rx="28" fill="#13161D" stroke="#2D323D" stroke-width="2"/>
    <text x="1260" y="405" fill="#D7DBE3" font-family="Arial, Helvetica, sans-serif" font-size="18">Pending</text>
    <text x="1260" y="468" fill="#F4F5F6" font-family="Arial, Helvetica, sans-serif" font-size="54" font-weight="700">1</text>
  </g>

  <rect x="390" y="546" width="650" height="280" rx="28" fill="#13161D" stroke="#2D323D" stroke-width="2"/>
  <text x="420" y="594" fill="#D7DBE3" font-family="Arial, Helvetica, sans-serif" font-size="18">Monthly spend velocity</text>
  <line x1="420" y1="648" x2="1010" y2="648" stroke="#D2D6DF" stroke-dasharray="8 10"/>
  <line x1="420" y1="708" x2="1010" y2="708" stroke="#D2D6DF" stroke-dasharray="8 10"/>
  <line x1="420" y1="768" x2="1010" y2="768" stroke="#D2D6DF" stroke-dasharray="8 10"/>

  <rect x="1060" y="546" width="428" height="280" rx="28" fill="#13161D" stroke="#2D323D" stroke-width="2"/>
  <text x="1090" y="594" fill="#D7DBE3" font-family="Arial, Helvetica, sans-serif" font-size="18">Category concentration</text>
  <circle cx="1270" cy="702" r="92" stroke="#F4F5F6" stroke-width="14"/>
  <path d="M1270 610 A92 92 0 0 1 1362 702" stroke="#8A8177" stroke-width="18" fill="none"/>
</svg>
