<svg width="1600" height="900" viewBox="0 0 1600 900" fill="none" xmlns="http://www.w3.org/2000/svg">
  <rect width="1600" height="900" fill="#07080C"/>
  <rect x="36" y="48" width="300" height="804" rx="30" fill="#11131A" stroke="#2C2F38" stroke-width="2"/>
  <text x="92" y="156" fill="#F4F5F6" font-family="Arial, Helvetica, sans-serif" font-size="30" font-weight="700">ClaimFlow AI</text>
  <rect x="60" y="216" width="252" height="66" rx="24" fill="#171922" stroke="#FF6D57" stroke-width="2"/>
  <text x="104" y="257" fill="#FF7A67" font-family="Arial, Helvetica, sans-serif" font-size="20" font-weight="700">Manager Hub</text>

  <rect x="372" y="48" width="1192" height="74" rx="28" fill="#11131A" stroke="#2C2F38" stroke-width="2"/>
  <rect x="398" y="68" width="840" height="38" rx="19" fill="#090C12" stroke="#D5D9E1" stroke-width="2"/>
  <rect x="1292" y="67" width="118" height="40" rx="20" fill="#171922" stroke="#FF6D57" stroke-width="2"/>
  <text x="1322" y="94" fill="#FF7A67" font-family="Arial, Helvetica, sans-serif" font-size="20" font-weight="700">Live system</text>

  <rect x="390" y="156" width="208" height="42" rx="21" fill="#171922" stroke="#2C2F38" stroke-width="2"/>
  <text x="412" y="184" fill="#B8BDC8" font-family="Arial, Helvetica, sans-serif" font-size="18" letter-spacing="3">Manager dashboard</text>
  <text x="390" y="262" fill="#F4F5F6" font-family="Arial, Helvetica, sans-serif" font-size="36" font-weight="700">Approvals to review</text>
  <text x="390" y="310" fill="#9AA0AE" font-family="Arial, Helvetica, sans-serif" font-size="24">Decision-first queue with original vs converted values, timestamps, receipt preview, and live approval actions.</text>

  <rect x="390" y="360" width="280" height="130" rx="28" fill="#13161D" stroke="#2D323D" stroke-width="2"/>
  <rect x="690" y="360" width="280" height="130" rx="28" fill="#13161D" stroke="#2D323D" stroke-width="2"/>
  <rect x="990" y="360" width="280" height="130" rx="28" fill="#13161D" stroke="#2D323D" stroke-width="2"/>
  <text x="420" y="405" fill="#D7DBE3" font-family="Arial, Helvetica, sans-serif" font-size="18">Pending approvals</text>
  <text x="420" y="458" fill="#F4F5F6" font-family="Arial, Helvetica, sans-serif" font-size="54" font-weight="700">1</text>
  <text x="720" y="405" fill="#D7DBE3" font-family="Arial, Helvetica, sans-serif" font-size="18">Approved today</text>
  <text x="720" y="458" fill="#F4F5F6" font-family="Arial, Helvetica, sans-serif" font-size="54" font-weight="700">1</text>
  <text x="1020" y="405" fill="#D7DBE3" font-family="Arial, Helvetica, sans-serif" font-size="18">Rejected today</text>
  <text x="1020" y="458" fill="#F4F5F6" font-family="Arial, Helvetica, sans-serif" font-size="54" font-weight="700">0</text>

  <rect x="390" y="522" width="690" height="304" rx="28" fill="#13161D" stroke="#2D323D" stroke-width="2"/>
  <text x="420" y="574" fill="#F4F5F6" font-family="Arial, Helvetica, sans-serif" font-size="24" font-weight="700">Approvals to review</text>
  <line x1="390" y1="648" x2="1080" y2="648" stroke="#5F636C" stroke-width="2"/>
  <text x="430" y="698" fill="#B8BDC8" font-family="Arial, Helvetica, sans-serif" font-size="16" letter-spacing="2">APPROVAL SUBJECT</text>
  <text x="620" y="698" fill="#B8BDC8" font-family="Arial, Helvetica, sans-serif" font-size="16" letter-spacing="2">REQUEST OWNER</text>
  <text x="810" y="698" fill="#B8BDC8" font-family="Arial, Helvetica, sans-serif" font-size="16" letter-spacing="2">STATUS</text>
  <text x="940" y="698" fill="#B8BDC8" font-family="Arial, Helvetica, sans-serif" font-size="16" letter-spacing="2">AMOUNT</text>
  <line x1="390" y1="736" x2="1080" y2="736" stroke="#5F636C" stroke-width="2"/>
  <text x="430" y="780" fill="#F4F5F6" font-family="Arial, Helvetica, sans-serif" font-size="22" font-weight="700">Expense receipt</text>
  <text x="620" y="780" fill="#F4F5F6" font-family="Arial, Helvetica, sans-serif" font-size="22">Ajay</text>
  <rect x="790" y="748" width="184" height="56" rx="28" fill="#171922" stroke="#FF6D57" stroke-width="2"/>
  <text x="822" y="782" fill="#FF7A67" font-family="Arial, Helvetica, sans-serif" font-size="18" font-weight="700">Pending Approval</text>
  <text x="1000" y="780" fill="#F4F5F6" font-family="Arial, Helvetica, sans-serif" font-size="22" font-weight="700">$138</text>

  <rect x="1110" y="522" width="378" height="304" rx="28" fill="#13161D" stroke="#2D323D" stroke-width="2"/>
  <text x="1140" y="574" fill="#D7DBE3" font-family="Arial, Helvetica, sans-serif" font-size="18">Claim detail</text>
  <text x="1140" y="630" fill="#F4F5F6" font-family="Arial, Helvetica, sans-serif" font-size="32" font-weight="700">Ajay</text>
  <rect x="1140" y="682" width="318" height="118" rx="28" fill="#1D2027" stroke="#3D424D" stroke-width="2"/>
  <text x="1224" y="748" fill="#F4F5F6" font-family="Arial, Helvetica, sans-serif" font-size="22" font-weight="700">receipt-preview.webp</text>
</svg>
